<svg width="25" height="25" viewBox="0 0 25 25" fill="none" xmlns="http://www.w3.org/2000/svg">
<g clip-path="url(#clip0_41_2591)">
<path d="M12.5 1.5625C13.3289 1.5625 14.1237 1.89174 14.7098 2.47779C15.2958 3.06384 15.6251 3.8587 15.6251 4.6875V7.8125H9.37505V4.6875C9.37505 3.8587 9.70429 3.06384 10.2903 2.47779C10.8764 1.89174 11.6712 1.5625 12.5 1.5625ZM17.1876 7.8125V4.6875C17.1876 3.4443 16.6937 2.25201 15.8146 1.37294C14.9355 0.49386 13.7433 0 12.5 0C11.2568 0 10.0646 0.49386 9.18549 1.37294C8.30641 2.25201 7.81255 3.4443 7.81255 4.6875V7.8125H5.25005C4.68892 7.81262 4.14645 8.01406 3.72123 8.38021C3.29602 8.74636 3.01628 9.25291 2.93286 9.80781L1.32817 20.5156C1.24503 21.0712 1.28271 21.6382 1.43863 22.1779C1.59455 22.7176 1.86505 23.2174 2.23168 23.643C2.59831 24.0687 3.05244 24.4103 3.56309 24.6444C4.07374 24.8786 4.62889 24.9999 5.19067 25H19.8079C20.3698 25.0001 20.9251 24.879 21.4359 24.6449C21.9468 24.4108 22.4011 24.0693 22.7679 23.6436C23.1347 23.2179 23.4053 22.7181 23.5614 22.1783C23.7174 21.6385 23.7551 21.0714 23.6719 20.5156L22.0657 9.80781C21.9823 9.25318 21.7028 8.74684 21.2779 8.38072C20.853 8.01461 20.3109 7.813 19.7501 7.8125H17.1876ZM15.6251 9.375V11.7188C15.6251 11.926 15.7074 12.1247 15.8539 12.2712C16.0004 12.4177 16.1991 12.5 16.4063 12.5C16.6135 12.5 16.8122 12.4177 16.9587 12.2712C17.1052 12.1247 17.1876 11.926 17.1876 11.7188V9.375H19.7485C19.9355 9.37518 20.1163 9.44246 20.2579 9.5646C20.3996 9.68675 20.4927 9.85565 20.5204 10.0406L22.1266 20.7453C22.1767 21.0788 22.1543 21.4191 22.0609 21.7431C21.9675 22.0671 21.8053 22.3671 21.5853 22.6227C21.3653 22.8783 21.0928 23.0834 20.7863 23.224C20.4798 23.3646 20.1466 23.4374 19.8094 23.4375H5.19067C4.85348 23.4374 4.52027 23.3646 4.21379 23.224C3.90731 23.0834 3.63479 22.8783 3.41482 22.6227C3.19485 22.3671 3.03261 22.0671 2.93919 21.7431C2.84577 21.4191 2.82336 21.0788 2.87349 20.7453L4.47974 10.0406C4.50738 9.85592 4.60027 9.68722 4.74159 9.56511C4.8829 9.443 5.06329 9.37556 5.25005 9.375H7.81255V11.7188C7.81255 11.926 7.89486 12.1247 8.04137 12.2712C8.18789 12.4177 8.3866 12.5 8.5938 12.5C8.801 12.5 8.99971 12.4177 9.14623 12.2712C9.29274 12.1247 9.37505 11.926 9.37505 11.7188V9.375H15.6251Z" fill="white"/>
</g>
<defs>
<clipPath id="clip0_41_2591">
<rect width="25" height="25" fill="white"/>
</clipPath>
</defs>
</svg>
