<svg width="25" height="25" viewBox="0 0 25 25" fill="none" xmlns="http://www.w3.org/2000/svg">
<g clip-path="url(#clip0_41_1954)">
<path d="M3.125 3.125C2.2962 3.125 1.50134 3.45424 0.915291 4.04029C0.32924 4.62634 0 5.4212 0 6.25L0 18.75C0 19.5788 0.32924 20.3737 0.915291 20.9597C1.50134 21.5458 2.2962 21.875 3.125 21.875H21.875C22.7038 21.875 23.4987 21.5458 24.0847 20.9597C24.6708 20.3737 25 19.5788 25 18.75V6.25C25 5.4212 24.6708 4.62634 24.0847 4.04029C23.4987 3.45424 22.7038 3.125 21.875 3.125H3.125ZM19.9969 20.3125C19.2891 18.3281 17.2469 15.625 12.5 15.625C7.75469 15.625 5.71094 18.3281 5.00312 20.3125H3.125C2.7106 20.3125 2.31317 20.1479 2.02015 19.8549C1.72712 19.5618 1.5625 19.1644 1.5625 18.75V6.25C1.5625 5.8356 1.72712 5.43817 2.02015 5.14515C2.31317 4.85212 2.7106 4.6875 3.125 4.6875H21.875C22.2894 4.6875 22.6868 4.85212 22.9799 5.14515C23.2729 5.43817 23.4375 5.8356 23.4375 6.25V18.75C23.4375 19.1644 23.2729 19.5618 22.9799 19.8549C22.6868 20.1479 22.2894 20.3125 21.875 20.3125H19.9969Z" fill="white"/>
</g>
<defs>
<clipPath id="clip0_41_1954">
<rect width="25" height="25" fill="white"/>
</clipPath>
</defs>
</svg>
