<svg width="1920" height="1" viewBox="0 0 1920 1" fill="none" xmlns="http://www.w3.org/2000/svg">
<path fill-rule="evenodd" clip-rule="evenodd" d="M5.51724 1H0V0H5.51724V1ZM27.5862 1H16.5517V0H27.5862V1ZM49.6552 1H38.6207V0H49.6552V1ZM71.7242 1H60.6897V0H71.7242V1ZM93.7932 1H82.7587V0H93.7932V1ZM115.862 1H104.828V0H115.862V1ZM137.931 1H126.897V0H137.931V1ZM160 1H148.966V0H160V1ZM182.069 1H171.035V0H182.069V1ZM204.138 1H193.104V0H204.138V1ZM226.207 1H215.172V0H226.207V1ZM248.276 1H237.241V0H248.276V1ZM270.345 1H259.31V0H270.345V1ZM292.414 1H281.379V0H292.414V1ZM314.483 1H303.448V0H314.483V1ZM336.552 1H325.517V0H336.552V1ZM358.621 1H347.586V0H358.621V1ZM380.69 1H369.655V0H380.69V1ZM402.759 1H391.724V0H402.759V1ZM424.828 1H413.793V0H424.828V1ZM446.897 1H435.862V0H446.897V1ZM468.966 1H457.931V0H468.966V1ZM491.035 1H480V0H491.035V1ZM513.104 1H502.069V0H513.104V1ZM535.173 1H524.138V0H535.173V1ZM557.242 1H546.207V0H557.242V1ZM579.31 1H568.276V0H579.31V1ZM601.379 1H590.345V0H601.379V1ZM623.448 1H612.414V0H623.448V1ZM645.517 1H634.483V0H645.517V1ZM667.586 1H656.552V0H667.586V1ZM689.655 1H678.621V0H689.655V1ZM711.724 1H700.69V0H711.724V1ZM733.793 1H722.759V0H733.793V1ZM755.862 1H744.828V0H755.862V1ZM777.931 1H766.897V0H777.931V1ZM800 1H788.966V0H800V1ZM822.069 1H811.035V0H822.069V1ZM844.138 1H833.104V0H844.138V1ZM866.207 1H855.173V0H866.207V1ZM888.276 1H877.242V0H888.276V1ZM910.345 1H899.311V0H910.345V1ZM932.414 1H921.38V0H932.414V1ZM954.483 1H943.448V0H954.483V1ZM976.552 1H965.517V0H976.552V1ZM998.621 1H987.586V0H998.621V1ZM1020.69 1H1009.66V0H1020.69V1ZM1042.76 1H1031.72V0H1042.76V1ZM1064.83 1H1053.79V0H1064.83V1ZM1086.9 1H1075.86V0H1086.9V1ZM1108.97 1H1097.93V0H1108.97V1ZM1131.04 1H1120V0H1131.04V1ZM1153.1 1H1142.07V0H1153.1V1ZM1175.17 1H1164.14V0H1175.17V1ZM1197.24 1H1186.21V0H1197.24V1ZM1219.31 1H1208.28V0H1219.31V1ZM1241.38 1H1230.35V0H1241.38V1ZM1263.45 1H1252.42V0H1263.45V1ZM1285.52 1H1274.48V0H1285.52V1ZM1307.59 1H1296.55V0H1307.59V1ZM1329.66 1H1318.62V0H1329.66V1ZM1351.73 1H1340.69V0H1351.73V1ZM1373.8 1H1362.76V0H1373.8V1ZM1395.86 1H1384.83V0H1395.86V1ZM1417.93 1H1406.9V0H1417.93V1ZM1440 1H1428.97V0H1440V1ZM1462.07 1H1451.04V0H1462.07V1ZM1484.14 1H1473.11V0H1484.14V1ZM1506.21 1H1495.18V0H1506.21V1ZM1528.28 1H1517.24V0H1528.28V1ZM1550.35 1H1539.31V0H1550.35V1ZM1572.42 1H1561.38V0H1572.42V1ZM1594.49 1H1583.45V0H1594.49V1ZM1616.56 1H1605.52V0H1616.56V1ZM1638.62 1H1627.59V0H1638.62V1ZM1660.69 1H1649.66V0H1660.69V1ZM1682.76 1H1671.73V0H1682.76V1ZM1704.83 1H1693.8V0H1704.83V1ZM1726.9 1H1715.87V0H1726.9V1ZM1748.97 1H1737.94V0H1748.97V1ZM1771.04 1H1760V0H1771.04V1ZM1793.11 1H1782.07V0H1793.11V1ZM1815.18 1H1804.14V0H1815.18V1ZM1837.25 1H1826.21V0H1837.25V1ZM1859.32 1H1848.28V0H1859.32V1ZM1881.38 1H1870.35V0H1881.38V1ZM1903.45 1H1892.42V0H1903.45V1ZM1920 1H1914.49V0H1920V1Z" fill="black"/>
</svg>
