<svg width="50" height="50" viewBox="0 0 50 50" fill="none" xmlns="http://www.w3.org/2000/svg">
<g clip-path="url(#clip0_41_2056)">
<path d="M25 19.4875L22.2062 13.8969C21.5125 12.5125 20.3094 10.5219 18.6062 8.9125C16.9312 7.32813 14.925 6.25 12.5 6.25C7.2625 6.25 3.125 10.3938 3.125 15.375C3.125 19.1594 4.85625 21.8313 8.9625 25.9063C10.0156 26.95 11.2156 28.0781 12.5437 29.3219C16.0062 32.5719 20.3125 36.6156 25 42.0219C29.6875 36.6156 33.9938 32.5719 37.4563 29.3219C38.7844 28.0781 39.9875 26.9469 41.0375 25.9063C45.1437 21.8313 46.875 19.1594 46.875 15.375C46.875 10.3938 42.7375 6.25 37.5 6.25C35.0719 6.25 33.0687 7.32813 31.3937 8.9125C29.6906 10.5219 28.4875 12.5125 27.7938 13.8969L25 19.4875ZM26.225 45.4C26.0745 45.5783 25.8869 45.7215 25.6754 45.8198C25.4638 45.9181 25.2333 45.969 25 45.969C24.7667 45.969 24.5362 45.9181 24.3246 45.8198C24.1131 45.7215 23.9255 45.5783 23.775 45.4C18.7719 39.4563 14.2437 35.2063 10.5156 31.7094C4.0625 25.65 0 21.8406 0 15.375C0 8.60938 5.59375 3.125 12.5 3.125C17.5 3.125 20.9969 6.40625 23.1375 9.4C23.95 10.5406 24.5688 11.6375 25 12.5C25.5406 11.4205 26.1633 10.3842 26.8625 9.4C29.0031 6.40312 32.5 3.125 37.5 3.125C44.4063 3.125 50 8.60938 50 15.375C50 21.8406 45.9375 25.65 39.4844 31.7094C35.7563 35.2094 31.2281 39.4625 26.225 45.4Z" fill="black"/>
</g>
<defs>
<clipPath id="clip0_41_2056">
<rect width="50" height="50" fill="white"/>
</clipPath>
</defs>
</svg>
