<svg width="25" height="25" viewBox="0 0 25 25" fill="none" xmlns="http://www.w3.org/2000/svg">
<g clip-path="url(#clip0_41_1233)">
<path d="M4.6875 3.125V10.2906L15.625 21.2281L22.7906 14.0625L11.8531 3.125H4.6875ZM3.125 3.125C3.125 2.7106 3.28962 2.31317 3.58265 2.02015C3.87567 1.72712 4.2731 1.5625 4.6875 1.5625H11.8531C12.2675 1.56259 12.6649 1.72727 12.9578 2.02031L23.8953 12.9578C24.1882 13.2508 24.3528 13.6482 24.3528 14.0625C24.3528 14.4768 24.1882 14.8742 23.8953 15.1672L16.7297 22.3328C16.4367 22.6257 16.0393 22.7903 15.625 22.7903C15.2107 22.7903 14.8133 22.6257 14.5203 22.3328L3.58281 11.3953C3.28977 11.1024 3.12509 10.705 3.125 10.2906V3.125Z" fill="white"/>
<path d="M8.59375 7.77846C8.38655 7.77846 8.18784 7.69615 8.04132 7.54964C7.89481 7.40312 7.8125 7.20441 7.8125 6.99721C7.8125 6.79001 7.89481 6.59129 8.04132 6.44478C8.18784 6.29827 8.38655 6.21596 8.59375 6.21596C8.80095 6.21596 8.99966 6.29827 9.14618 6.44478C9.29269 6.59129 9.375 6.79001 9.375 6.99721C9.375 7.20441 9.29269 7.40312 9.14618 7.54964C8.99966 7.69615 8.80095 7.77846 8.59375 7.77846ZM8.59375 9.34096C9.21535 9.34096 9.81149 9.09403 10.251 8.65449C10.6906 8.21495 10.9375 7.61881 10.9375 6.99721C10.9375 6.37561 10.6906 5.77947 10.251 5.33993C9.81149 4.90039 9.21535 4.65346 8.59375 4.65346C7.97215 4.65346 7.37601 4.90039 6.93647 5.33993C6.49693 5.77947 6.25 6.37561 6.25 6.99721C6.25 7.61881 6.49693 8.21495 6.93647 8.65449C7.37601 9.09403 7.97215 9.34096 8.59375 9.34096ZM1.5625 11.0378C1.56259 11.4522 1.72727 11.8496 2.02031 12.1425L13.6719 23.7941L13.6047 23.8613C13.3117 24.1542 12.9143 24.3187 12.5 24.3187C12.0857 24.3187 11.6883 24.1542 11.3953 23.8613L0.457813 12.9238C0.164767 12.6308 8.84959e-05 12.2335 0 11.8191L0 4.65346C0 4.23906 0.16462 3.84163 0.457646 3.54861C0.750671 3.25558 1.1481 3.09096 1.5625 3.09096V11.0378Z" fill="white"/>
</g>
<defs>
<clipPath id="clip0_41_1233">
<rect width="25" height="25" fill="white"/>
</clipPath>
</defs>
</svg>
